<?xml version="1.0" encoding="UTF-8"?>
<svg xmlns="http://www.w3.org/2000/svg" xmlns:xlink="http://www.w3.org/1999/xlink" width="375pt" height="374.999991pt" viewBox="0 0 375 374.999991" version="1.2">
<defs>
<clipPath id="clip1">
  <path d="M 19 0 L 359.203125 0 L 359.203125 375 L 19 375 Z M 19 0 "/>
</clipPath>
<clipPath id="clip2">
  <path d="M 96 189 L 148.222656 189 L 148.222656 284 L 96 284 Z M 96 189 "/>
</clipPath>
<clipPath id="clip3">
  <path d="M 230 201 L 283.890625 201 L 283.890625 284.25 L 230 284.25 Z M 230 201 "/>
</clipPath>
<clipPath id="clip4">
  <path d="M 230 187.5 L 283.890625 187.5 L 283.890625 217 L 230 217 Z M 230 187.5 "/>
</clipPath>
</defs>
<g id="surface1">
<rect x="0" y="0" width="375" height="374.999991" style="fill:rgb(100%,100%,100%);fill-opacity:1;stroke:none;"/>
<path style=" stroke:none;fill-rule:nonzero;fill:rgb(0%,41.569519%,67.83905%);fill-opacity:1;" d="M 27.316406 274.632812 C 22.730469 274.632812 19.019531 278.351562 19.019531 282.929688 L 19.019531 366.542969 C 19.019531 371.128906 22.730469 374.84375 27.316406 374.84375 C 31.890625 374.84375 35.609375 371.128906 35.609375 366.542969 L 35.609375 282.929688 C 35.609375 278.351562 31.890625 274.632812 27.316406 274.632812 "/>
<g clip-path="url(#clip1)" clip-rule="nonzero">
<path style=" stroke:none;fill-rule:nonzero;fill:rgb(0%,41.569519%,67.83905%);fill-opacity:1;" d="M 256.109375 0.140625 C 230.542969 0.140625 207.144531 9.523438 189.109375 24.996094 C 170.441406 8.941406 146.9375 0.15625 122.074219 0.15625 C 69.789062 0.15625 25.796875 39.269531 19.742188 91.128906 C 19.207031 95.679688 22.464844 99.800781 27.015625 100.335938 C 27.339844 100.371094 27.667969 100.394531 27.988281 100.394531 C 32.136719 100.394531 35.722656 97.285156 36.214844 93.058594 C 41.296875 49.558594 78.207031 16.753906 122.074219 16.753906 C 142.558594 16.753906 161.949219 23.855469 177.394531 36.789062 C 168.789062 46.96875 162.125 58.828125 157.957031 71.8125 C 149.199219 61.816406 136.378906 55.464844 122.074219 55.464844 C 95.738281 55.464844 74.316406 76.894531 74.316406 103.234375 L 74.316406 366.558594 C 74.316406 371.144531 78.027344 374.859375 82.609375 374.859375 C 87.1875 374.859375 90.90625 371.144531 90.90625 366.558594 L 90.90625 103.234375 C 90.90625 86.042969 104.890625 72.058594 122.074219 72.058594 C 138.386719 72.058594 151.789062 84.664062 153.113281 100.640625 C 153.09375 101.503906 153.050781 102.363281 153.050781 103.234375 C 153.050781 103.839844 153.117188 104.433594 153.242188 105 L 153.242188 366.558594 C 153.242188 371.144531 156.960938 374.859375 161.542969 374.859375 C 166.121094 374.859375 169.832031 371.144531 169.832031 366.558594 L 169.832031 103.234375 C 169.832031 102.359375 169.753906 101.503906 169.703125 100.644531 C 171.082031 54.144531 209.296875 16.738281 256.109375 16.738281 C 303.789062 16.738281 342.578125 55.539062 342.578125 103.234375 L 342.578125 366.558594 C 342.578125 371.144531 346.296875 374.859375 350.875 374.859375 C 355.457031 374.859375 359.167969 371.144531 359.167969 366.558594 L 359.167969 103.234375 C 359.167969 46.390625 312.9375 0.140625 256.109375 0.140625 "/>
</g>
<path style=" stroke:none;fill-rule:nonzero;fill:rgb(0%,41.569519%,67.83905%);fill-opacity:1;" d="M 256.109375 55.464844 C 229.773438 55.464844 208.351562 76.894531 208.351562 103.234375 L 208.539062 103.234375 L 208.539062 366.550781 C 208.539062 371.132812 212.25 374.847656 216.832031 374.847656 C 221.410156 374.847656 225.128906 371.132812 225.128906 366.550781 L 225.128906 103.234375 C 225.128906 102.273438 225.105469 101.3125 225.078125 100.253906 C 226.585938 84.453125 239.925781 72.058594 256.109375 72.058594 C 273.292969 72.058594 287.277344 86.042969 287.277344 103.234375 L 287.277344 366.558594 C 287.277344 371.144531 290.996094 374.859375 295.574219 374.859375 C 300.15625 374.859375 303.867188 371.144531 303.867188 366.558594 L 303.867188 103.234375 C 303.867188 76.894531 282.441406 55.464844 256.109375 55.464844 "/>
<path style=" stroke:none;fill-rule:nonzero;fill:rgb(0%,41.569519%,67.83905%);fill-opacity:1;" d="M 19.019531 140.535156 C 19.019531 153.992188 39.386719 154.003906 39.386719 140.535156 C 39.386719 127.074219 19.019531 127.058594 19.019531 140.535156 "/>
<path style=" stroke:none;fill-rule:nonzero;fill:rgb(0%,41.569519%,67.83905%);fill-opacity:1;" d="M 29.199219 177.316406 C 15.746094 177.316406 15.730469 197.683594 29.199219 197.683594 C 42.65625 197.683594 42.671875 177.316406 29.199219 177.316406 "/>
<path style=" stroke:none;fill-rule:nonzero;fill:rgb(0%,41.569519%,67.83905%);fill-opacity:1;" d="M 19.019531 234.464844 C 19.019531 247.929688 39.386719 247.941406 39.386719 234.464844 C 39.386719 221.007812 19.019531 220.996094 19.019531 234.464844 "/>
<g clip-path="url(#clip2)" clip-rule="nonzero">
<path style=" stroke:none;fill-rule:nonzero;fill:rgb(0%,41.569519%,67.83905%);fill-opacity:1;" d="M 122.402344 189.710938 C 109.304688 189.710938 98.28125 199.503906 96.753906 212.496094 C 96.433594 215.226562 100.566406 215.703125 100.882812 212.980469 C 102.996094 195.003906 124.988281 187.484375 137.722656 200.214844 C 141.816406 204.300781 144.070312 209.742188 144.070312 215.535156 L 144.070312 281.488281 C 144.070312 284.238281 148.226562 284.234375 148.226562 281.488281 L 148.226562 215.535156 C 148.226562 201.121094 136.53125 189.710938 122.402344 189.710938 "/>
</g>
<path style=" stroke:none;fill-rule:nonzero;fill:rgb(0%,41.569519%,67.83905%);fill-opacity:1;" d="M 96.574219 260.535156 L 96.574219 281.488281 C 96.574219 284.238281 100.730469 284.234375 100.730469 281.488281 L 100.730469 260.535156 C 100.730469 257.785156 96.574219 257.792969 96.574219 260.535156 "/>
<path style=" stroke:none;fill-rule:nonzero;fill:rgb(0%,41.569519%,67.83905%);fill-opacity:1;" d="M 130.210938 246.9375 L 114.589844 246.9375 L 114.589844 215.535156 C 114.589844 211.226562 118.09375 207.71875 122.402344 207.71875 C 126.707031 207.71875 130.210938 211.226562 130.210938 215.535156 Z M 122.402344 203.5625 C 115.800781 203.5625 110.433594 208.933594 110.433594 215.535156 L 110.433594 251.09375 L 134.367188 251.09375 L 134.367188 215.535156 C 134.367188 208.933594 129 203.5625 122.402344 203.5625 "/>
<path style=" stroke:none;fill-rule:nonzero;fill:rgb(0%,41.569519%,67.83905%);fill-opacity:1;" d="M 110.433594 281.488281 C 110.433594 284.238281 114.589844 284.230469 114.589844 281.488281 L 114.589844 262.054688 L 130.210938 262.054688 L 130.210938 281.488281 C 130.210938 284.238281 134.367188 284.230469 134.367188 281.488281 L 134.367188 257.898438 L 110.433594 257.898438 L 110.433594 281.488281 "/>
<path style=" stroke:none;fill-rule:nonzero;fill:rgb(0%,41.569519%,67.83905%);fill-opacity:1;" d="M 96.574219 224.875 C 96.574219 228.246094 101.679688 228.25 101.679688 224.875 C 101.679688 221.503906 96.574219 221.5 96.574219 224.875 "/>
<path style=" stroke:none;fill-rule:nonzero;fill:rgb(0%,41.569519%,67.83905%);fill-opacity:1;" d="M 99.128906 234.085938 C 95.753906 234.085938 95.75 239.1875 99.128906 239.1875 C 102.5 239.1875 102.5 234.085938 99.128906 234.085938 "/>
<path style=" stroke:none;fill-rule:nonzero;fill:rgb(0%,41.569519%,67.83905%);fill-opacity:1;" d="M 96.574219 248.402344 C 96.574219 251.773438 101.679688 251.777344 101.679688 248.402344 C 101.679688 245.03125 96.574219 245.027344 96.574219 248.402344 "/>
<g clip-path="url(#clip3)" clip-rule="nonzero">
<path style=" stroke:none;fill-rule:nonzero;fill:rgb(0%,41.569519%,67.83905%);fill-opacity:1;" d="M 265.253906 249.695312 L 265.253906 257.628906 C 265.253906 262.066406 261.648438 265.675781 257.214844 265.675781 C 252.78125 265.675781 249.175781 262.066406 249.175781 257.628906 L 249.175781 249.695312 Z M 249.175781 214.117188 C 249.175781 209.679688 252.78125 206.070312 257.214844 206.070312 C 261.648438 206.070312 265.253906 209.679688 265.253906 214.117188 C 265.253906 215.300781 266.210938 216.261719 267.394531 216.261719 C 268.574219 216.261719 269.535156 215.300781 269.535156 214.117188 C 269.535156 207.320312 264.007812 201.785156 257.214844 201.785156 C 250.421875 201.785156 244.894531 207.320312 244.894531 214.117188 L 244.894531 233.960938 C 244.894531 233.96875 244.890625 233.976562 244.890625 233.988281 C 244.890625 233.996094 244.894531 234.003906 244.894531 234.015625 L 244.894531 257.628906 C 244.894531 264.429688 250.421875 269.960938 257.214844 269.960938 C 264.007812 269.960938 269.535156 264.429688 269.535156 257.628906 L 269.535156 245.414062 L 249.175781 245.414062 L 249.175781 236.128906 L 279.519531 236.128906 L 279.519531 257.628906 C 279.519531 269.941406 269.511719 279.957031 257.210938 279.957031 C 245.894531 279.957031 236.375 271.488281 235.058594 260.257812 C 234.921875 259.082031 233.859375 258.242188 232.6875 258.378906 C 231.511719 258.515625 230.671875 259.578125 230.808594 260.753906 C 232.371094 274.144531 243.722656 284.242188 257.210938 284.242188 C 271.871094 284.242188 283.800781 272.300781 283.800781 257.628906 L 283.800781 231.84375 L 249.175781 231.84375 L 249.175781 214.117188 "/>
</g>
<g clip-path="url(#clip4)" clip-rule="nonzero">
<path style=" stroke:none;fill-rule:nonzero;fill:rgb(0%,41.569519%,67.83905%);fill-opacity:1;" d="M 232.6875 213.363281 C 233.859375 213.496094 234.921875 212.660156 235.058594 211.484375 C 236.371094 200.257812 245.894531 191.792969 257.210938 191.792969 C 263.175781 191.792969 268.773438 194.113281 272.984375 198.335938 C 277.199219 202.550781 279.519531 208.160156 279.519531 214.121094 C 279.519531 215.304688 280.476562 216.265625 281.660156 216.265625 C 282.839844 216.265625 283.800781 215.304688 283.800781 214.121094 C 283.800781 207.015625 281.035156 200.332031 276.011719 195.304688 C 270.996094 190.277344 264.320312 187.507812 257.210938 187.507812 C 243.722656 187.507812 232.371094 197.601562 230.808594 210.988281 C 230.671875 212.160156 231.511719 213.226562 232.6875 213.363281 "/>
</g>
<path style=" stroke:none;fill-rule:nonzero;fill:rgb(0%,41.569519%,67.83905%);fill-opacity:1;" d="M 236.050781 223.75 C 236.050781 220.273438 230.796875 220.269531 230.796875 223.75 C 230.796875 227.222656 236.050781 227.226562 236.050781 223.75 "/>
<path style=" stroke:none;fill-rule:nonzero;fill:rgb(0%,41.569519%,67.83905%);fill-opacity:1;" d="M 233.421875 238.503906 C 236.894531 238.503906 236.898438 233.246094 233.421875 233.246094 C 229.949219 233.246094 229.945312 238.503906 233.421875 238.503906 "/>
<path style=" stroke:none;fill-rule:nonzero;fill:rgb(0%,41.569519%,67.83905%);fill-opacity:1;" d="M 236.050781 248 C 236.050781 244.527344 230.796875 244.523438 230.796875 248 C 230.796875 251.476562 236.050781 251.480469 236.050781 248 "/>
</g>
</svg>
